# xmcd
#
# Track frame offsets: 
#        150
#        39515
#        73920
#        104220
#        136948
#        187280
#        250685
#        291644
#
# Disc length: 4582 seconds
#
# Revision: 0
# Processed by: cddbd v1.5.2PL0 Copyright (c) Steve Scherf et al.
# Submitted via: ExactAudioCopy v0.99pb4
#
DISCID=8711e408
DTITLE=Various Artist - Magnus Opus
DYEAR=2008
DGENRE=Trance
TTITLE0=Someone I Know - Morning Rhapsody
TTITLE1=Madness Increazzed - Radical Sense
TTITLE2=Phobos Azazel - Intoxication
TTITLE3=Gorump Peyya - Change the World (If You Can)
TTITLE4=Sectio Aurea - As Above So Below
TTITLE5=Glosolalia - Melancholic Design
TTITLE6=Furious - Psidm Powered More
TTITLE7=Magnum Opus - Only Wish to Warn You
EXTD=
EXTT0=
EXTT1=
EXTT2=
EXTT3=
EXTT4=
EXTT5=
EXTT6=
EXTT7=
PLAYORDER=
